<svg id="Group_239" data-name="Group 239" xmlns="http://www.w3.org/2000/svg" xmlns:xlink="http://www.w3.org/1999/xlink" width="68.646" height="68.62" viewBox="0 0 68.646 68.62">
  <defs>
    <clipPath id="clip-path">
      <rect id="Rectangle_282" data-name="Rectangle 282" width="68.646" height="68.62" fill="#5d8aa3"/>
    </clipPath>
  </defs>
  <g id="Group_238" data-name="Group 238" clip-path="url(#clip-path)">
    <path id="Path_356" data-name="Path 356" d="M34.524,67.342A4.552,4.552,0,0,1,27.88,67L26.3,64.922a4.421,4.421,0,0,0-4.784-1.36l-2.279.636a4.492,4.492,0,0,1-5.3-4.421,4.7,4.7,0,0,0-3.4-4.466l-2.433-.436a4.334,4.334,0,0,1-3.533-5.294l.6-2.071a4.574,4.574,0,0,0-2.448-5.435A4.909,4.909,0,0,1,.184,39.108c-.8-3.077,1.207-4.279,2.383-5.9a4.774,4.774,0,0,0-.225-5.839,4.494,4.494,0,0,1-.861-3.9A4.266,4.266,0,0,1,3.816,20.6L5.81,19.75a4.349,4.349,0,0,0,2.728-4.2l-.124-2.4a4.307,4.307,0,0,1,1.7-3.446,4.683,4.683,0,0,1,4.161-.778A4.368,4.368,0,0,0,18.992,6.3L19.9,4.2a4.336,4.336,0,0,1,5.923-2.034L27.91,3.2a4.375,4.375,0,0,0,4.606-.475A18,18,0,0,0,34.1,1.334a4.519,4.519,0,0,1,6.682.3l1.576,2.083a4.371,4.371,0,0,0,4.784,1.36,20.353,20.353,0,0,1,2.278-.636,4.488,4.488,0,0,1,5.3,4.422,4.7,4.7,0,0,0,3.4,4.466l2.312.407a4.431,4.431,0,0,1,3.7,5.074l-.59,2.09a4.687,4.687,0,0,0,2.394,5.665,4.9,4.9,0,0,1,2.539,2.965,4.568,4.568,0,0,1-.962,4.242l-1.432,1.68a4.3,4.3,0,0,0-.336,4.847l1.167,1.386a4.279,4.279,0,0,1-1.786,6.216l-2.46,1.085a4.165,4.165,0,0,0-2.283,4.1l.133,2.258A4.57,4.57,0,0,1,54.927,59.7a4.62,4.62,0,0,0-5.209,2.56l-.952,2.179A4.311,4.311,0,0,1,42.943,66.5l-2.184-1.065a4.422,4.422,0,0,0-4.929.714Zm-17.1-17.77a22.727,22.727,0,1,0-.366-30.1,22.737,22.737,0,0,0,.366,30.1" transform="translate(0.001 0.001)" fill="#5d8aa3"/>
    <path id="Path_357" data-name="Path 357" d="M147.424,149.335a17.611,17.611,0,1,1-.4-25.862,17.57,17.57,0,0,1,.4,25.862m-21.888-11.175,6.164,6.162a1.207,1.207,0,0,0,1.7.052l11.48-11.339a1.279,1.279,0,0,0,.147-1.909l-2.314-2.307a1.27,1.27,0,0,0-1.879.163l-8.26,8.158-3.052-3.053a1.222,1.222,0,0,0-1.748.027l-2.257,2.26a1.224,1.224,0,0,0,.017,1.786" transform="translate(-101.005 -102.139)" fill="#5d8aa3"/>
  </g>
</svg>
