<svg id="Group_241" data-name="Group 241" xmlns="http://www.w3.org/2000/svg" xmlns:xlink="http://www.w3.org/1999/xlink" width="77.359" height="58.657" viewBox="0 0 77.359 58.657">
  <defs>
    <clipPath id="clip-path">
      <rect id="Rectangle_283" data-name="Rectangle 283" width="77.359" height="58.657" fill="#5d8aa3"/>
    </clipPath>
  </defs>
  <g id="Group_240" data-name="Group 240" clip-path="url(#clip-path)">
    <path id="Path_358" data-name="Path 358" d="M50.054,58.6l-2.1.056-.985-.173a11.141,11.141,0,0,1-8.173-4,10.421,10.421,0,0,1-5.294,3.651,24.45,24.45,0,0,1-3.051.365l-.823.154-2.3-.063c-7.675-.631-13.986-6.075-17.319-12.9A90.443,90.443,0,0,0,5.7,37.689,37.371,37.371,0,0,0,.754,31.464a2.7,2.7,0,0,1-.631-2.653A2.922,2.922,0,0,1,1.979,27.1c2.223-.748,4.441-.094,6.686,1L2.532,13.471a4.55,4.55,0,0,1,.757-4.523A4.767,4.767,0,0,1,7.32,7.208,4.679,4.679,0,0,1,9.328.509a4.7,4.7,0,0,1,6.43,2.971A4.794,4.794,0,0,1,20.191,2.01a4.671,4.671,0,0,1,3.35,2.627L28.15,15.45a12.848,12.848,0,0,1,1.117-4.772,3.109,3.109,0,0,1,3.715-1.564,2.954,2.954,0,0,1,2.2,2.217,44.632,44.632,0,0,1,.959,5.675,72.246,72.246,0,0,0,2.535,12.551,59.817,59.817,0,0,0,2.085-9.376l.96-6.813a8.721,8.721,0,0,1,.907-3A3.1,3.1,0,0,1,45.73,9.039c2.642.264,3.253,3.635,3.487,6.26L53.861,4.431a4.586,4.586,0,0,1,3.673-2.58A4.75,4.75,0,0,1,61.684,3.6,4.8,4.8,0,0,1,66.58.01a4.708,4.708,0,0,1,3.726,2.434,4.614,4.614,0,0,1-.123,4.673,4.7,4.7,0,0,1,3.884,1.772,4.5,4.5,0,0,1,.787,4.378L68.808,27.9c2.607-1.523,6.935-2.008,8.184.1a2.964,2.964,0,0,1-.638,3.608,29.886,29.886,0,0,0-3.959,4.8,59.911,59.911,0,0,0-4.515,8.1A25.6,25.6,0,0,1,59.7,54.985,17.265,17.265,0,0,1,50.054,58.6M23.406,34.122a7.9,7.9,0,0,1,3.325-4.946,9.248,9.248,0,0,1,9.121-.437,84.341,84.341,0,0,1-2.11-11.281c-.224-1.791-.459-3.43-.8-5.2a1.012,1.012,0,0,0-.807-.759c-1.933-.07-1.895,8.1-.562,12a1.307,1.307,0,0,1-.687,1.671,1.254,1.254,0,0,1-1.647-.669L21.282,5.775a2.259,2.259,0,0,0-2.551-1.252C17.99,4.7,16.774,5.8,17.174,6.757l7.876,18.85a1.275,1.275,0,0,1-.738,1.564,1.334,1.334,0,0,1-1.658-.626L14.941,8.053,13.4,4.213a2.268,2.268,0,0,0-2.8-1.571A2.139,2.139,0,0,0,9.144,5.26L19.276,29.273a1.286,1.286,0,0,1-.718,1.716,1.27,1.27,0,0,1-1.614-.682L8.795,10.961A2.186,2.186,0,0,0,6,9.836a2.131,2.131,0,0,0-1.2,2.688L13.46,33.138c.315.75.346,1.4-.335,1.843a1.293,1.293,0,0,1-1.827-.469c-4.359-6.627-9.03-5.094-8.854-4.785l.246.433a33.165,33.165,0,0,1,4.273,5.131,81,81,0,0,1,5.416,9.828c3.825,7.7,12.21,13.319,20.791,10.413a8.53,8.53,0,0,0,4.24-3.548,57.208,57.208,0,0,0-5.666-3.7c-5.43-3.206-9.5-7.538-8.336-14.159M40.137,51.936a8.24,8.24,0,0,0,4.174,3.377c8.622,2.831,16.928-2.747,20.785-10.474,2.825-5.658,5.248-10.647,10.042-15.282-3.88-1.44-7.013,1.969-9.2,5.079a1.271,1.271,0,0,1-1.749.269,1.341,1.341,0,0,1-.318-1.716L72.61,12.339c.42-1-.526-2.13-1.2-2.484a2.015,2.015,0,0,0-2.624.76l-8.25,19.57a1.376,1.376,0,0,1-1.879.687,1.3,1.3,0,0,1-.532-1.795L66.44,9.412,68.147,5.4a2.134,2.134,0,0,0-1.123-2.669,2.17,2.17,0,0,0-2.765.9c-.644,1.314-1.111,2.607-1.693,4.006L54.72,26.5a1.272,1.272,0,0,1-2.323-1.03L60.1,7.12a2.152,2.152,0,0,0-1.311-2.636,2.112,2.112,0,0,0-2.674,1.11l-7.865,18.5c-.246.578-.549,1.012-1.046,1.076a1.387,1.387,0,0,1-1.391-.6,2.075,2.075,0,0,1,.1-1.532,23.885,23.885,0,0,0,.63-9.118c-.147-1.427-.88-2.762-1.547-2.413a2.166,2.166,0,0,0-.595.7l-.957,6.456a89.247,89.247,0,0,1-1.987,10.19,9.311,9.311,0,0,1,8.657-.059,7.679,7.679,0,0,1,3.946,5.151,11.292,11.292,0,0,1-2.7,9.982c-3.3,3.742-7.382,5.008-11.223,8.019m9.083-9.426c3.144-3.228,3.746-8.935.172-11.225a6.681,6.681,0,0,0-9.372,2.243c-.373.654-.746,1.088-1.532.984-.66-.088-.824-.662-1.164-1.24a6.724,6.724,0,0,0-6.834-2.939,5.559,5.559,0,0,0-4.8,5.308,9.032,9.032,0,0,0,1.991,6.175,17.577,17.577,0,0,0,4.756,3.991c2.151,1.265,4.2,2.564,6.3,4.012,3.463-2.585,7.519-4.185,10.482-7.309" transform="translate(0 0)" fill="#5d8aa3"/>
  </g>
</svg>
