<svg id="Group_243" data-name="Group 243" xmlns="http://www.w3.org/2000/svg" xmlns:xlink="http://www.w3.org/1999/xlink" width="59.239" height="58.657" viewBox="0 0 59.239 58.657">
  <defs>
    <clipPath id="clip-path">
      <rect id="Rectangle_284" data-name="Rectangle 284" width="59.239" height="58.657" fill="#5d8aa3"/>
    </clipPath>
  </defs>
  <g id="Group_242" data-name="Group 242" clip-path="url(#clip-path)">
    <path id="Path_359" data-name="Path 359" d="M21.108,111.874c-1.276-8.16-5.119-15.521-11.982-20.132A28.786,28.786,0,0,0,0,87.857c7.74-1.9,13.5-6.063,17.369-12.9a32.992,32.992,0,0,0,3.74-11.113,32.131,32.131,0,0,0,4.584,12.521c3.915,6.093,9.4,9.743,16.529,11.495a30.36,30.36,0,0,0-7.4,2.836c-7.848,4.354-12.354,12.35-13.713,21.182" transform="translate(0 -55.346)" fill="#5d8aa3"/>
    <path id="Path_360" data-name="Path 360" d="M226.929,24.67a18.164,18.164,0,0,0-2.127-5.7,14.389,14.389,0,0,0-9.452-6.641c6.5-1.523,10.29-5.9,11.569-12.326a23.672,23.672,0,0,0,1.132,3.757,14.306,14.306,0,0,0,10.45,8.558,14.824,14.824,0,0,0-8.191,4.865,16.172,16.172,0,0,0-3.38,7.489" transform="translate(-186.695)" fill="#5d8aa3"/>
    <path id="Path_361" data-name="Path 361" d="M282.8,280.1a18.163,18.163,0,0,0-2.127-5.7,14.389,14.389,0,0,0-9.452-6.641c6.5-1.523,10.29-5.9,11.569-12.326a23.672,23.672,0,0,0,1.132,3.757,14.306,14.306,0,0,0,10.45,8.558,14.824,14.824,0,0,0-8.19,4.865,16.172,16.172,0,0,0-3.38,7.489" transform="translate(-235.135 -221.443)" fill="#5d8aa3"/>
  </g>
</svg>
