<svg id="Group_245" data-name="Group 245" xmlns="http://www.w3.org/2000/svg" xmlns:xlink="http://www.w3.org/1999/xlink" width="22.079" height="58.657" viewBox="0 0 22.079 58.657">
  <defs>
    <clipPath id="clip-path">
      <rect id="Rectangle_285" data-name="Rectangle 285" width="22.079" height="58.657" fill="#5d8aa3"/>
    </clipPath>
  </defs>
  <g id="Group_244" data-name="Group 244" clip-path="url(#clip-path)">
    <path id="Path_362" data-name="Path 362" d="M0,141.836l.013,4.577a4.95,4.95,0,0,0,4.225,4.4l1.125,18.715c.082,1.359,1.5,1.988,2.618,1.99l5.9.01a2.548,2.548,0,0,0,2.829-2.436l1.058-18.282a4.948,4.948,0,0,0,4.247-4.555,35.062,35.062,0,0,0-.029-4.607l-.079-9.1a3.806,3.806,0,0,0-3.344-3.485,19.608,19.608,0,0,0-3.686-.679l-7.643,0a18.88,18.88,0,0,0-3.7.654c-1.717.338-3.4,1.617-3.423,3.515Z" transform="translate(0 -112.876)" fill="#5d8aa3"/>
    <path id="Path_363" data-name="Path 363" d="M41.211.084a7.083,7.083,0,1,0,5.907,8.091A7.046,7.046,0,0,0,41.211.084" transform="translate(-29.121 0)" fill="#5d8aa3"/>
  </g>
</svg>
