<svg id="Group_247" data-name="Group 247" xmlns="http://www.w3.org/2000/svg" xmlns:xlink="http://www.w3.org/1999/xlink" width="48.713" height="58.657" viewBox="0 0 48.713 58.657">
  <defs>
    <clipPath id="clip-path">
      <rect id="Rectangle_286" data-name="Rectangle 286" width="48.713" height="58.657" fill="#5d8aa3"/>
    </clipPath>
  </defs>
  <g id="Group_246" data-name="Group 246" clip-path="url(#clip-path)">
    <path id="Path_364" data-name="Path 364" d="M47.365,418.408H1.275A1.794,1.794,0,0,1,0,417.079l0-3.393A1.574,1.574,0,0,1,1.686,412.5H47.164a1.446,1.446,0,0,1,1.531,1.484l.018,2.757a1.649,1.649,0,0,1-1.348,1.668" transform="translate(0 -359.75)" fill="#5d8aa3"/>
    <path id="Path_365" data-name="Path 365" d="M150.825,136.747c-.2,1.741-.438,3.416-1.787,4.623-1.578,1.412-3.042,2.51-2.826,4.765l1.509,12.609-10.594,0c.665-4.026,1.272-7.914,1.645-11.936.487-3.379-2.727-4.285-2.743-7.426l-.024-4.969a.823.823,0,0,1,.741-.874l7.508-.005c-.067,1.543-.661,2.777-2.139,3.216-2,.594-3.457.01-3.645.8a.886.886,0,0,0,.378.851,5.709,5.709,0,0,1,2.676,5.082.717.717,0,0,0,.628.717.7.7,0,0,0,.7-.712,6.83,6.83,0,0,0-1.97-5.092c1.669-.343,2.868-.577,3.91-2.014a2.844,2.844,0,0,0,2.056.932,3.032,3.032,0,0,0,1.963-.966,2.738,2.738,0,0,0,2.016.4" transform="translate(-118.615 -116.462)" fill="#5d8aa3"/>
    <path id="Path_366" data-name="Path 366" d="M97.147,380.351H65.069l.48-1.494a1.659,1.659,0,0,1,1.42-1.151l28.153,0a1.594,1.594,0,0,1,1.513,1.078Z" transform="translate(-56.749 -329.406)" fill="#5d8aa3"/>
    <path id="Path_367" data-name="Path 367" d="M122.356,345.549H98.942l.5-1.508a1.7,1.7,0,0,1,1.41-1.135l19.484,0a1.635,1.635,0,0,1,1.5,1.065Z" transform="translate(-86.29 -299.055)" fill="#5d8aa3"/>
    <path id="Path_368" data-name="Path 368" d="M213.442,111.982a1.174,1.174,0,1,1-2.339-.068v-3.2a1.177,1.177,0,1,1,2.345,0Z" transform="translate(-184.109 -93.701)" fill="#5d8aa3"/>
    <path id="Path_369" data-name="Path 369" d="M67.339,53.125a.94.94,0,0,1,.1,1.292.927.927,0,0,1-1.274.082l-3-3a.925.925,0,0,1,.018-1.216.912.912,0,0,1,1.255-.052Z" transform="translate(-54.89 -43.609)" fill="#5d8aa3"/>
    <path id="Path_370" data-name="Path 370" d="M282.766,54.506a.9.9,0,1,1-1.248-1.3l2.871-2.873a.908.908,0,1,1,1.282,1.286Z" transform="translate(-245.279 -43.648)" fill="#5d8aa3"/>
    <path id="Path_371" data-name="Path 371" d="M64.56,272.8a.9.9,0,1,1-1.243-1.3l2.8-2.811a.909.909,0,1,1,1.281,1.285Z" transform="translate(-54.937 -234.059)" fill="#5d8aa3"/>
    <path id="Path_372" data-name="Path 372" d="M285.582,271.519a.913.913,0,0,1,.072,1.253.89.89,0,0,1-1.315.055l-2.931-2.933a.9.9,0,0,1,.06-1.3.918.918,0,0,1,1.278.09Z" transform="translate(-245.204 -234.057)" fill="#5d8aa3"/>
    <path id="Path_373" data-name="Path 373" d="M185.271,5.012a.925.925,0,0,1-.85.922.907.907,0,0,1-.951-.867V.855A.926.926,0,0,1,184.314,0a.906.906,0,0,1,.951.857Z" transform="translate(-160.009 0)" fill="#5d8aa3"/>
    <path id="Path_374" data-name="Path 374" d="M18.051,172.332l-4.029.01a.907.907,0,1,1-.12-1.808l4.19,0a.925.925,0,0,1,.835.8.878.878,0,0,1-.876.994" transform="translate(-11.347 -148.727)" fill="#5d8aa3"/>
    <path id="Path_375" data-name="Path 375" d="M326.66,172.328l-4.032,0a.9.9,0,0,1-.1-1.8l4.19-.007a.934.934,0,0,1,.883.819.886.886,0,0,1-.939.984" transform="translate(-280.547 -148.72)" fill="#5d8aa3"/>
    <path id="Path_376" data-name="Path 376" d="M241.146,114.425a1.024,1.024,0,0,1-.948,1.119,1,1,0,0,1-1.109-1.042l0-2.818a1.03,1.03,0,1,1,2.054-.116Z" transform="translate(-208.514 -96.412)" fill="#5d8aa3"/>
    <path id="Path_377" data-name="Path 377" d="M143,102.586l-3.242.03a8.162,8.162,0,0,1,.07-2.067,1.692,1.692,0,0,1,3.085-.006,9.611,9.611,0,0,1,.087,2.043" transform="translate(-121.862 -86.821)" fill="#5d8aa3"/>
    <path id="Path_378" data-name="Path 378" d="M180.044,102.248l-3.066.026,0-1.751a1.483,1.483,0,0,1,1.423-1.333,1.464,1.464,0,0,1,1.592,1.3Z" transform="translate(-154.346 -86.501)" fill="#5d8aa3"/>
  </g>
</svg>
