<svg xmlns="http://www.w3.org/2000/svg" xmlns:xlink="http://www.w3.org/1999/xlink" width="169.106" height="42.398" viewBox="0 0 169.106 42.398">
  <defs>
    <clipPath id="clip-path">
      <rect id="Rectangle_104" data-name="Rectangle 104" width="169.107" height="42.398" fill="#fffcf8"/>
    </clipPath>
  </defs>
  <g id="Group_199" data-name="Group 199" transform="translate(0 0)">
    <g id="Group_198" data-name="Group 198" transform="translate(0 0)" clip-path="url(#clip-path)">
      <path id="Path_322" data-name="Path 322" d="M48.619,35.583c-4.307,4.3-9.925,5.093-15.154,4.739C21.037,39.445,16.6,31.232,6.589,31.232V5.411c0-3.076.878-3.954,3.513-3.954V1.02H0v.437c2.634,0,3.512.878,3.512,3.954v21.96c0,3.071-.878,3.95-3.512,3.95v.442H6.589c9.179,0,14.493,10.361,26.042,11.24,7.378.574,12.388-2.811,16.249-7.2Z" transform="translate(0 -0.667)" fill="#fffcf8"/>
      <path id="Path_323" data-name="Path 323" d="M69.56,26.511a5.393,5.393,0,0,1-2.295,3.945,5.063,5.063,0,0,1-2.992.777H54.127V16.3h7.246c3.072,0,3.95.878,3.95,3.513h.441V12.261h-.441c0,2.635-.878,3.513-3.95,3.513H54.127V1.546h9.7c3.513,0,4.391.878,5.269,4.832h.441l-.878-5.357H47.494v.437c2.635,0,3.513.878,3.513,3.954V27.371c0,3.071-.879,3.95-3.513,3.95v.442H69.1q.424-2.443.843-4.89c-.128-.119-.256-.243-.384-.362" transform="translate(-31.06 -0.668)" fill="#fffcf8"/>
      <path id="Path_324" data-name="Path 324" d="M132.948,15.812v.437c2.635,0,3.513.878,3.513,3.954V23.54c0,5.092-5.269,7.379-9.881,7.379-8.124,0-12.868-8.169-12.868-15.194S118.456.525,126.05.525c5.185,0,11.77,2.988,11.77,9.047h.53L138.261.353h-.525V1.1c0,.878-.264,1.315-.794,1.315a2.506,2.506,0,0,1-.962-.261A22.115,22.115,0,0,0,126.05,0a15.586,15.586,0,0,0-15.807,15.724,15.474,15.474,0,0,0,15.282,15.72c3.209,0,7.816-.834,10.848-2.939a2.208,2.208,0,0,1,1.143-.485c.437,0,.7.353.923,1.1l.569,1.977h.529V20.2c0-3.076.878-3.954,3.513-3.954v-.437Z" transform="translate(-72.096 0)" fill="#fffcf8"/>
      <path id="Path_325" data-name="Path 325" d="M221.486,21.872l1.933,5.358c.878,2.634.437,3.424-2.065,3.424V31.1h9.576v-.441c-2.285,0-3.076-.613-4-2.767L216.874,0H213.8l-10.1,27.71c-.922,2.286-1.712,2.944-4.042,2.944V31.1h6.853v-.441c-2.418,0-2.9-.746-2.153-3.16l2.065-5.622.06-.175.053-.169.06-.186L213.975,1.1l7.334,20.243" transform="translate(-130.572 -0.001)" fill="#fffcf8"/>
      <path id="Path_326" data-name="Path 326" d="M299.912,1.021H273.386l-.879,5.358h.442c.878-3.954,1.756-4.833,5.269-4.833h5.887V27.371c0,3.071-.878,3.95-3.513,3.95v.442h10.1v-.442c-2.635,0-3.513-.878-3.513-3.95V1.546h7.886a11.523,11.523,0,0,1,1.717.106c2.145.326,2.86,1.5,3.575,4.727h.437Z" transform="translate(-178.213 -0.668)" fill="#fffcf8"/>
      <path id="Path_327" data-name="Path 327" d="M378.285,25.527c-.878,3.95-1.756,5.706-5.269,5.706h-10.15V16.3h7.2c3.076,0,3.954.878,3.954,3.512h.437V12.261h-.437c0,2.635-.878,3.513-3.954,3.513h-7.2V1.546h9.709a11.516,11.516,0,0,1,1.717.106c2.145.327,2.86,1.5,3.574,4.726h.437l-.879-5.357H356.237v.437a7.184,7.184,0,0,1,1.218.088c1.694.283,2.294,1.324,2.294,3.866V27.371c0,3.072-.878,3.95-3.513,3.95v.441h21.606l.878-6.235Z" transform="translate(-232.97 -0.668)" fill="#fffcf8"/>
      <path id="Path_328" data-name="Path 328" d="M445.782,25.527c-.878,3.95-1.756,5.706-5.269,5.706h-10.15V16.3h7.2c3.076,0,3.954.878,3.954,3.512h.437V12.261h-.437c0,2.635-.878,3.513-3.954,3.513h-7.2V1.546h9.709a11.516,11.516,0,0,1,1.717.106c2.145.327,2.859,1.5,3.574,4.726h.437l-.879-5.357H423.734v.437a7.184,7.184,0,0,1,1.218.088c1.694.283,2.294,1.324,2.294,3.866V27.371c0,3.072-.878,3.95-3.513,3.95v.441H445.34l.878-6.235Z" transform="translate(-277.112 -0.668)" fill="#fffcf8"/>
      <path id="Path_329" data-name="Path 329" d="M212.6,44.321a5.2,5.2,0,0,1-.94-.073c-.06-.012-.608-.12-1.307-.331-.364-.11-.613-.2-.613-.2-.336-.119-.612-.231-.8-.311L209.1,43c.185.079.451.187.778.3,0,0,.243.085.594.191.678.2,1.206.308,1.264.32a7.662,7.662,0,0,0,3.628-.419,8.845,8.845,0,0,0,3.875-2.837c.811-1.06.963-1.788,1.466-4.2.12-.579.261-1.252.435-2.046.481-2.194.814-3.444,1.136-4.653.407-1.527.791-2.969,1.434-6.155.273-1.353.489-2.476.635-3.247l.434.082c-.146.772-.362,1.9-.636,3.252-.645,3.2-1.031,4.647-1.44,6.181-.321,1.2-.652,2.45-1.132,4.635-.174.792-.313,1.463-.434,2.041-.505,2.423-.675,3.239-1.547,4.379a9.3,9.3,0,0,1-4.078,2.985,8.824,8.824,0,0,1-2.919.51" transform="translate(-136.637 -13.247)" fill="#fffcf8"/>
    </g>
  </g>
</svg>
